<?xml version="1.0" standalone="no"?>
<!DOCTYPE svg PUBLIC "-//W3C//DTD SVG 20010904//EN"
 "http://www.w3.org/TR/2001/REC-SVG-20010904/DTD/svg10.dtd">
<svg version="1.0" xmlns="http://www.w3.org/2000/svg"
 width="500.000000pt" height="500.000000pt" viewBox="0 0 500.000000 500.000000"
 preserveAspectRatio="xMidYMid meet">
<metadata>
Created by potrace 1.14, written by Peter Selinger 2001-2017
</metadata>
<g transform="translate(0.000000,500.000000) scale(0.100000,-0.100000)"
fill="#000000" stroke="none">
<path d="M367 2943 c-9 -8 -9 -576 -1 -597 8 -22 80 -22 88 0 3 9 6 120 6 247
l0 231 163 -162 c90 -89 168 -162 173 -163 5 0 18 -2 28 -4 20 -4 59 30 243
213 57 56 107 102 111 102 4 0 7 -104 7 -231 0 -169 3 -233 12 -240 6 -6 27
-9 45 -7 l33 3 0 305 0 305 -49 3 -48 3 -177 -175 -178 -176 -179 175 -179
175 -46 0 c-25 0 -49 -3 -52 -7z"/>
<path d="M1394 2936 c-3 -8 -4 -25 -2 -38 2 -19 10 -24 41 -26 42 -4 53 11 43
53 -5 21 -12 25 -42 25 -21 0 -37 -6 -40 -14z"/>
<path d="M2089 2918 c-1 -18 -1 -66 -2 -105 0 -40 -1 -73 -2 -73 -1 0 -24 10
-51 22 -38 17 -72 23 -149 25 -222 6 -325 -66 -325 -228 1 -148 87 -224 266
-233 95 -4 176 8 227 34 23 12 39 19 35 15 -16 -17 13 -45 46 -45 27 0 35 5
39 23 7 29 8 557 1 580 -4 12 -16 17 -45 17 -37 0 -39 -2 -40 -32z m-89 -230
c60 -26 85 -69 82 -140 -1 -39 -21 -87 -44 -105 -28 -22 -97 -36 -178 -36
-150 0 -210 45 -210 155 0 48 27 100 60 118 57 31 226 35 290 8z"/>
<path d="M1413 2779 c-23 -8 -23 -9 -23 -229 l0 -221 43 3 42 3 0 219 c0 210
-1 219 -20 226 -11 4 -30 4 -42 -1z"/>
<path d="M2273 2782 c-39 -6 -47 9 161 -284 l120 -168 53 0 53 0 57 86 57 85
18 -23 c11 -13 36 -48 58 -79 21 -31 46 -59 55 -63 36 -13 83 -6 104 17 45 47
291 403 288 417 -3 19 -60 22 -85 5 -10 -7 -71 -90 -137 -184 -66 -94 -122
-171 -126 -171 -3 0 -63 81 -133 180 -70 99 -131 180 -134 181 -43 5 -75 2
-83 -7 -6 -8 9 -37 46 -88 82 -115 81 -100 16 -193 l-57 -82 -129 184 c-134
190 -140 196 -202 187z"/>
<path d="M3495 2775 c-66 -14 -132 -42 -138 -59 -3 -7 4 -23 15 -36 18 -22 22
-23 51 -11 94 39 267 47 328 15 31 -16 38 -25 44 -54 3 -16 -2 -20 -23 -21
-15 0 -86 -2 -158 -4 -72 -1 -154 -8 -182 -15 -82 -19 -121 -73 -107 -149 8
-48 25 -69 74 -92 77 -36 309 -32 369 7 21 14 25 13 49 -6 32 -25 127 -29 137
-5 8 22 -12 68 -28 62 -32 -13 -39 9 -41 135 -2 136 -12 171 -62 203 -62 41
-211 55 -328 30z m301 -279 c-1 -33 -6 -43 -32 -58 -79 -46 -329 -42 -347 6
-11 27 6 65 32 75 35 14 63 16 218 17 l131 1 -2 -41z"/>
<path d="M3940 2767 c0 -13 32 -61 216 -318 l82 -117 -97 -133 c-54 -74 -96
-140 -93 -146 4 -14 70 -18 87 -5 29 20 516 713 509 724 -10 15 -83 9 -100 -9
-9 -10 -70 -94 -135 -186 l-118 -168 -131 185 -132 186 -44 0 c-30 0 -44 -4
-44 -13z"/>
<path d="M354 2156 c-3 -8 -4 -35 -2 -62 l3 -49 68 0 c38 -1 76 4 85 11 21 15
18 85 -4 101 -23 17 -144 16 -150 -1z m114 -25 c6 0 12 -12 12 -25 0 -21 -6
-24 -40 -28 -40 -4 -42 -2 -42 27 0 32 2 33 70 26z"/>
<path d="M692 2108 l3 -62 62 -1 c39 0 64 4 67 11 7 19 -4 24 -52 24 -25 0
-42 3 -38 7 4 4 23 7 43 8 20 0 38 6 41 13 4 12 -12 16 -60 12 -16 -1 -28 3
-28 9 0 6 21 11 50 11 40 0 48 3 44 15 -5 11 -23 15 -71 15 l-64 0 3 -62z"/>
<path d="M999 2163 c-12 -91 -5 -128 23 -118 10 4 14 18 13 40 -1 19 2 35 7
35 4 0 8 -3 8 -7 0 -5 14 -23 31 -41 23 -24 37 -32 57 -29 25 3 27 7 28 53 0
59 -4 74 -21 74 -16 0 -26 -25 -19 -44 12 -30 -16 -24 -42 9 -19 26 -34 35
-55 35 -16 0 -29 -3 -30 -7z"/>
<path d="M1330 2150 c0 -12 7 -17 23 -16 18 1 22 -5 24 -29 0 -16 2 -37 2 -47
1 -9 8 -15 19 -14 12 2 18 14 20 43 3 34 7 42 28 47 13 4 24 13 24 21 0 11
-15 14 -70 14 -60 -1 -70 -3 -70 -19z"/>
<path d="M1655 2130 c-14 -23 -30 -52 -35 -65 -8 -21 -6 -25 8 -25 10 0 23 5
29 11 14 14 71 15 85 1 12 -12 48 -17 48 -6 0 3 -14 33 -31 65 -40 74 -66 79
-104 19z m57 -18 c4 -12 -1 -18 -13 -18 -14 0 -15 4 -8 18 5 10 11 18 13 18 2
0 6 -8 8 -18z"/>
<path d="M1952 2108 l3 -63 60 0 c47 0 60 3 60 15 0 14 -7 16 -62 19 -20 1
-23 6 -23 46 0 39 -3 45 -20 45 -19 0 -21 -5 -18 -62z"/>
<path d="M2489 2163 c-10 -2 -19 -13 -22 -24 -8 -30 1 -81 15 -91 22 -14 124
-9 137 6 12 14 9 85 -4 105 -6 11 -93 13 -126 4z m87 -33 c8 0 14 -4 14 -9 0
-4 -10 -8 -22 -7 -14 1 -23 -5 -23 -14 0 -9 7 -14 19 -12 11 2 15 -1 11 -7
-11 -18 -54 -12 -65 8 -12 23 14 56 37 47 8 -3 21 -6 29 -6z"/>
<path d="M2798 2158 c-2 -7 -4 -35 -4 -62 1 -40 4 -50 20 -52 11 -2 20 5 23
17 8 29 73 23 73 -7 0 -15 9 -18 25 -6 14 9 16 93 3 110 -6 7 -35 12 -73 12
-41 0 -64 -4 -67 -12z m100 -27 c29 -2 9 -21 -23 -21 -22 0 -35 5 -35 13 0 8
9 13 23 11 12 -1 28 -3 35 -3z"/>
<path d="M3132 2162 c-19 -13 -23 -74 -6 -99 12 -20 23 -23 72 -23 31 0 63 4
71 9 19 12 22 89 4 107 -16 15 -119 20 -141 6z m101 -31 c4 -1 7 -12 7 -26 0
-14 -3 -25 -7 -26 -50 -7 -66 -2 -74 19 -7 19 -5 24 14 31 12 5 29 7 37 5 8
-1 18 -3 23 -3z"/>
<path d="M3459 2168 c-9 -24 -3 -103 8 -114 18 -17 114 -19 131 -2 7 7 12 36
12 66 0 45 -3 53 -16 48 -9 -3 -18 -6 -20 -6 -2 0 -4 -18 -4 -40 0 -22 -4 -41
-10 -41 -5 -1 -16 -2 -22 -3 -31 -5 -48 15 -48 54 0 29 -4 40 -15 40 -8 0 -15
-1 -16 -2z"/>
<path d="M3780 2107 c0 -54 2 -63 19 -64 11 -1 21 6 24 17 3 13 13 17 38 15
47 -4 69 10 69 43 0 42 -17 52 -87 52 l-63 0 0 -63z m96 23 c8 0 14 -4 14 -10
0 -5 -16 -10 -35 -10 -33 0 -43 8 -28 24 4 3 13 4 21 1 7 -3 20 -5 28 -5z"/>
</g>
</svg>
