<svg xmlns="http://www.w3.org/2000/svg" width="141.657" height="122.095" viewBox="0 0 141.657 122.095">
  <path id="Tracciato_30" data-name="Tracciato 30" d="M482.09,42.388A42.436,42.436,0,0,0,439.7,0c-7.9,0-17.864,3.082-28.049,8.677l-.385.212-.385-.212C400.7,3.082,390.731,0,382.821,0a42.436,42.436,0,0,0-42.388,42.388c0,13.954,7.583,33.086,20.284,51.178A116.807,116.807,0,0,0,377.646,113.1c6.6,5.886,12.55,9,17.213,9,1.119,0,2.994,0,11.493-8.412,1.437-1.418,2.892-2.912,4.326-4.439l.582-.62.583.618c1.524,1.617,2.98,3.111,4.326,4.44,8.507,8.413,10.377,8.413,11.494,8.413,4.665,0,10.62-3.111,17.219-9a116.771,116.771,0,0,0,16.929-19.531c12.7-18.087,20.278-37.219,20.278-51.178m-70.828,57.858-.6-.685c-2.679-3.055-5.331-6.245-7.881-9.482a175.64,175.64,0,0,1-11.816-16.757,71.252,71.252,0,0,1-7.655-15.872l-.009-.018-.012-.047a15.615,15.615,0,0,1-1.115-5.818c0-.11,0-.221.006-.331v-.03a15.934,15.934,0,0,1,15.842-15.487,15.707,15.707,0,0,1,8.6,2.543,15.9,15.9,0,0,1,4.645,4.606,16.015,16.015,0,0,1,4.644-4.607,15.743,15.743,0,0,1,8.6-2.542,15.933,15.933,0,0,1,15.842,15.486v.033c.006.11.006.219.006.329A15.6,15.6,0,0,1,439.31,57.2v.165l-.088.1a72.132,72.132,0,0,1-7.657,15.86A176.507,176.507,0,0,1,419.75,90.078c-2.573,3.26-5.226,6.45-7.888,9.483Zm16.983,16.2-.254.024-.22-.127c-2.014-1.161-6.919-5.731-12.205-11.372l-.5-.53.481-.546c2.563-2.909,5.056-5.874,7.409-8.813,7.847-9.8,17.965-23.97,21.613-35.868l0-.007.015-.061.014-.029.005-.012a28.823,28.823,0,0,0,1.361-7.934v-.041A21.471,21.471,0,0,0,424.5,30.1a21.245,21.245,0,0,0-12.759,4.218l-.477.355-.477-.355A21.263,21.263,0,0,0,398.019,30.1a21.479,21.479,0,0,0-21.465,21.047v.032a28.68,28.68,0,0,0,1.327,7.813l.088.094,0,.2c3.671,11.885,13.767,26.024,21.6,35.8,2.334,2.916,4.825,5.881,7.4,8.814l.48.545-.5.53c-5.286,5.641-10.191,10.211-12.205,11.372l-.221.127-.253-.024c-6.71-.632-18.619-11.366-28.96-26.105-11.881-16.927-19.262-35.3-19.262-47.95A36.807,36.807,0,0,1,382.821,5.623c5.911,0,13.564,2.141,21.549,6.028,2.284,1.105,4.6,2.364,6.9,3.744,2.253-1.359,4.571-2.618,6.9-3.745C426.149,7.764,433.8,5.623,439.7,5.623a36.807,36.807,0,0,1,36.765,36.765c0,12.655-7.379,31.029-19.256,47.951-10.346,14.738-22.258,25.473-28.966,26.1" transform="translate(-340.433)" fill="#fff"/>
</svg>
