<?xml version="1.0" encoding="utf-8"?>
<!-- Generator: Adobe Illustrator 26.3.1, SVG Export Plug-In . SVG Version: 6.00 Build 0)  -->
<svg version="1.1" id="Layer_1" xmlns="http://www.w3.org/2000/svg" xmlns:xlink="http://www.w3.org/1999/xlink" x="0px" y="0px"
	 viewBox="0 0 500 500" style="enable-background:new 0 0 500 500;" xml:space="preserve">
<style type="text/css">
	.st0{fill:#3F4244;}
</style>
<g>
	<path class="st0" d="M446,181c-10.3,0-18.6,8.3-18.6,18.6v150.5c0,11-1.6,21.3-4.9,30.7c-3.2,9.2-7.8,17.3-13.8,24
		c-5.9,6.6-13.2,11.9-21.7,15.7c-8.6,3.8-18.5,5.7-29.6,5.7c-11,0-21-1.9-29.5-5.8c-8.5-3.8-15.8-9.1-21.7-15.7
		c-5.9-6.7-10.5-14.8-13.7-24c-3.2-9.4-4.9-19.7-4.9-30.7v-6.8c0-0.4,0.1-0.7,0.1-1.1V198c0-10.3-8.3-18.6-18.6-18.6
		c-5.1,0-10.1,2.1-13.7,5.8c-3.6,3.7-5.5,8.7-5.3,13.8c0,1.2,0.1,71,0.1,81.9c0,2.1,0,4,0,5.9L71.1,47c-2.3-3-4.7-5.1-7.3-6.2l0,0
		c-2.3-1-5.1-1.5-8.4-1.5H54c-10.3,0-18.6,8.3-18.6,18.6v219.8c0,10.3,8.3,18.6,18.6,18.6h0.4c10.3,0,18.6-8.3,18.6-18.6V113
		l177.3,236.7v0.5c0,15.3,2.5,29.8,7.3,43.1c4.9,13.5,12.1,25.4,21.3,35.4c9.3,10.1,20.8,18.1,34,23.9c13.2,5.7,28.2,8.6,44.5,8.6
		c16.3,0,31.3-2.9,44.5-8.6c13.3-5.7,24.7-13.8,34-23.9c9.3-10.1,16.4-22,21.3-35.4c4.9-13.3,7.3-27.8,7.3-43.1V199.6
		C464.6,189.4,456.3,181,446,181z"/>
	<path class="st0" d="M270.9,143.3c10.8,0,19.6-8.8,19.6-19.6s-8.8-19.6-19.6-19.6c-10.8,0-19.6,8.8-19.6,19.6
		S260.1,143.3,270.9,143.3z"/>
	<circle class="st0" cx="270.9" cy="53.7" r="14.8"/>
</g>
</svg>
