<svg id="Raggruppa_262" data-name="Raggruppa 262" xmlns="http://www.w3.org/2000/svg" xmlns:xlink="http://www.w3.org/1999/xlink" width="95.612" height="95.612" viewBox="0 0 95.612 95.612">
  <defs>
    <clipPath id="clip-path">
      <path id="Tracciato_4207" data-name="Tracciato 4207" d="M2.5,49.181A46.681,46.681,0,1,0,49.181,2.5,46.734,46.734,0,0,0,2.5,49.181" transform="translate(-2.5 -2.5)" fill="none"/>
    </clipPath>
    <linearGradient id="linear-gradient" x1="0.818" y1="0.884" x2="0.127" y2="0.163" gradientUnits="objectBoundingBox">
      <stop offset="0" stop-color="#00c3ff"/>
      <stop offset="1" stop-color="aqua"/>
    </linearGradient>
    <clipPath id="clip-path-2">
      <rect id="Rettangolo_309" data-name="Rettangolo 309" width="95.612" height="95.612" fill="none"/>
    </clipPath>
  </defs>
  <g id="Raggruppa_256" data-name="Raggruppa 256" transform="translate(1.125 1.125)">
    <g id="Raggruppa_255" data-name="Raggruppa 255" clip-path="url(#clip-path)">
      <rect id="Rettangolo_308" data-name="Rettangolo 308" width="93.362" height="93.362" transform="translate(0 0)" fill="url(#linear-gradient)"/>
    </g>
  </g>
  <g id="Raggruppa_258" data-name="Raggruppa 258">
    <g id="Raggruppa_257" data-name="Raggruppa 257" clip-path="url(#clip-path-2)">
      <path id="Tracciato_4208" data-name="Tracciato 4208" d="M47.806,2.25A45.556,45.556,0,1,1,2.25,47.806,45.556,45.556,0,0,1,47.806,2.25m0-2.25A47.806,47.806,0,1,0,95.612,47.806,47.86,47.86,0,0,0,47.806,0" fill="#fff"/>
      <path id="Tracciato_4209" data-name="Tracciato 4209" d="M99.58,67.962a2.5,2.5,0,0,0-2.5,2.5V90.684a12.623,12.623,0,0,1-.656,4.122,9.445,9.445,0,0,1-1.852,3.222,8.419,8.419,0,0,1-2.921,2.105,9.808,9.808,0,0,1-3.976.765,9.681,9.681,0,0,1-3.97-.775A8.421,8.421,0,0,1,80.8,98.007a9.552,9.552,0,0,1-1.843-3.227,12.611,12.611,0,0,1-.656-4.121v-.913c0-.047.007-.094.007-.142V70.246a2.5,2.5,0,0,0-2.5-2.5,2.561,2.561,0,0,0-1.837.782,2.522,2.522,0,0,0-.71,1.859c0,.166.012,9.546.018,11,0,.28,0,.543,0,.79L49.2,49.95a2.52,2.52,0,0,0-.984-.839l0,0a2.8,2.8,0,0,0-1.13-.2H46.9a2.5,2.5,0,0,0-2.5,2.5V80.937a2.5,2.5,0,0,0,2.5,2.5h.057a2.5,2.5,0,0,0,2.5-2.5V58.815l23.823,31.8v.07a16.838,16.838,0,0,0,.983,5.789,14.111,14.111,0,0,0,2.868,4.762,13.344,13.344,0,0,0,4.571,3.208,16.026,16.026,0,0,0,11.96,0,13.349,13.349,0,0,0,4.57-3.208,14.121,14.121,0,0,0,2.868-4.762,16.851,16.851,0,0,0,.983-5.79V70.46a2.5,2.5,0,0,0-2.5-2.5" transform="translate(-24.418 -26.897)" fill="#fff"/>
      <path id="Tracciato_4210" data-name="Tracciato 4210" d="M111.5,73.524a2.638,2.638,0,1,0-2.638-2.638,2.641,2.641,0,0,0,2.638,2.638" transform="translate(-59.874 -37.535)" fill="#fff"/>
      <path id="Tracciato_4211" data-name="Tracciato 4211" d="M112.292,52.785a1.993,1.993,0,1,0-1.993-1.993,2,2,0,0,0,1.993,1.993" transform="translate(-60.662 -26.838)" fill="#fff"/>
    </g>
  </g>
</svg>
