<svg xmlns="http://www.w3.org/2000/svg" width="60" height="60" viewBox="0 0 60 60">
  <g id="Raggruppa_267" data-name="Raggruppa 267" transform="translate(-923 -17178)">
    <circle id="Ellisse_1" data-name="Ellisse 1" cx="30" cy="30" r="30" transform="translate(923 17178)" fill="#f2f2f2"/>
    <path id="Icon_awesome-phone" data-name="Icon awesome-phone" d="M25.4,1.266,20.046.031a1.244,1.244,0,0,0-1.416.716L16.16,6.512a1.232,1.232,0,0,0,.355,1.441l3.12,2.553a19.079,19.079,0,0,1-9.122,9.122L7.959,16.51a1.234,1.234,0,0,0-1.441-.355L.751,18.625a1.25,1.25,0,0,0-.721,1.421L1.266,25.4a1.235,1.235,0,0,0,1.2.958A23.884,23.884,0,0,0,26.358,2.471,1.234,1.234,0,0,0,25.4,1.266Z" transform="translate(939.821 17194.82)" fill="#fff"/>
  </g>
</svg>
