<?xml version="1.0" encoding="UTF-8"?><svg id="Layer_2" xmlns="http://www.w3.org/2000/svg" viewBox="0 0 301.5 283.83"><defs><style>.cls-1{fill:#010101;}</style></defs><g id="Layer_2-2"><path class="cls-1" d="m116.88,132.12c.02.44.06.87.06,1.31v93.05c0,.44-.04.87-.07,1.31h-6.07c-3.57,0-7.14-.03-10.72-.04-.07-.07-.14-.14-.2-.2-.01-2.56-.02-5.11-.04-7.67,0-.48-.03-.96-.04-1.43.02-.17.03-.34.05-.51h-.25c-.08.16-.17.33-.25.49-.67.72-1.37,1.41-1.99,2.17-1.43,1.75-3.21,3.07-5.04,4.36-2.28,1.6-4.81,2.63-7.43,3.47-1.22.39-2.5.55-3.75.83-.09.02-.16.14-.24.22h-6.24c-.88-.23-1.75-.53-2.65-.69-2.35-.41-4.51-1.33-6.55-2.47-2.54-1.42-4.84-3.21-6.85-5.33-1.84-1.95-3.46-4.07-4.75-6.43-1-1.82-1.86-3.68-2.54-5.64-.78-2.27-1.24-4.63-1.68-6.99-.3-1.58-.51-3.18-.62-4.76-.14-2.02-.03-4.07,0-6.1.03-1.68,0-3.37.22-5.02.29-2.24.7-4.46,1.2-6.66.56-2.45,1.4-4.82,2.55-7.07,1.48-2.9,3.33-5.51,5.67-7.79,2.39-2.34,5.1-4.17,8.14-5.53,1.88-.84,3.82-1.47,5.89-1.68,1.13-.12,2.24-.33,3.36-.49h4.37c3.75.38,7.29,1.44,10.56,3.29,1.73.98,3.37,2.14,4.78,3.58.77.78,1.57,1.53,2.36,2.29.12.08.25.15.37.23l.05-.3c0-10.82.01-21.64.02-32.45,0-.44.04-.87.06-1.31h18.25v-.04Zm-31.89,82.73c1.64-.24,3.21-.73,4.65-1.52,3.3-1.82,5.63-4.59,7-8.05,1.26-3.18,1.83-6.56,1.97-9.99.14-3.28-.22-6.53-.65-9.78-.21-1.6-.62-3.14-1.11-4.63-.79-2.36-2.05-4.46-3.92-6.19-1.49-1.38-3.1-2.46-5.05-3.01-.88-.25-1.77-.49-2.66-.73-1.3-.38-2.59-.38-3.89,0-1.51,0-2.86.58-4.19,1.21-2.59,1.24-4.55,3.18-6.09,5.56-2.02,3.15-2.82,6.72-3.08,10.36-.23,3.33-.13,6.7.18,10.04.21,2.33.65,4.61,1.46,6.8,1.14,3.09,3.04,5.67,5.73,7.6,1.91,1.37,4.05,2.27,6.47,2.34,1.06.36,2.11.36,3.17,0h.01Z"/><path class="cls-1" d="m202.58,172.85v-14.35c2.48,0,4.96,0,7.43-.02.36,0,.82.21,1.06-.29v-13.69c6.02-3.54,12.09-7.1,18.36-10.78v24.49c.3.49.79.27,1.19.28,3.74.03,7.48.04,11.22.05l.09.02.08-.03v14.33c-.48,0-.96.03-1.44.03-3.36,0-6.71,0-10.07,0-.35,0-.71.17-1.06.27,0,1.16-.03,2.31-.03,3.47,0,9.3,0,18.59.04,27.89,0,1.95.08,3.91.17,5.86.04.94.55,1.79,1.19,2.34.73.63,1.53,1.35,2.63,1.36h1.45c.25-.06.5-.12.74-.18,1.66.03,3.17-.61,4.72-1.07.44-.13.87-.29,1.46-.48.1.88.17,1.68.28,2.47.14,1.04.32,2.07.46,3.11.1.73.17,1.47.25,2.21.22,2.14.44,4.28.67,6.42-.14.08-.28.17-.42.25-1.63.56-3.23,1.19-4.93,1.52-1.63.32-3.23.81-4.9.92-.08,0-.16.14-.24.21h-7.68c-.75-.24-1.49-.56-2.26-.71-2.29-.44-4.37-1.43-6.24-2.72-1.89-1.3-3.33-3.09-4.04-5.34-.49-1.55-1.06-3.09-1.33-4.68-.26-1.56-.22-3.18-.26-4.77-.06-2.15-.1-4.31-.1-6.46v-30.28c0-.44-.02-.88-.02-1.32-.23-.53-.69-.28-1.05-.28-2.48-.03-4.95-.03-7.43-.04v-.02Z"/><path class="cls-1" d="m173.76,156.78c3.68.41,7.26,1.23,10.59,2.93,3.47,1.77,6.18,4.31,7.86,7.85,1.2,2.53,1.82,5.21,2.2,8.02.95,7.03.52,14.07.58,21.11.09,10.34.03,20.69.03,31.03-1.79.02-3.59.06-5.38.06-4.27,0-8.53-.02-12.8-.04-.07-.07-.14-.13-.21-.2-.02-.44-.04-.88-.04-1.31,0-12.3,0-24.6-.04-36.9,0-2.54-.21-5.09-.44-7.62-.12-1.34-.38-2.71-.8-3.99-1.05-3.13-3.21-5.23-6.36-6.27-.69-.23-1.43-.35-2.14-.52-1.22-.38-2.44-.34-3.66.02-2.19.12-4.17.94-5.98,2.08-2.49,1.56-4.46,3.63-5.5,6.44-.39,1.04-.64,2.13-.92,3.21-.19.75-.34,1.51-.46,2.28-.05.32.1.67.06.99-.43,3.52-.39,7.07-.39,10.6v29.67c0,.44-.02.88-.03,1.31-.06.07-.13.14-.19.21-1.56,0-3.12.04-4.67.04-4.43,0-8.87-.02-13.3-.04-.06-.07-.13-.14-.19-.21-.01-.4-.03-.8-.03-1.2v-66.64c0-.4.03-.8.05-1.19,5.66,0,11.31,0,16.97-.02.02,2.35.04,4.69.06,7.04,0,.84,0,1.67.02,2.51,0,.09.02.17.04.26.1-.08.2-.16.3-.24,2.35-2.96,5.04-5.57,8.27-7.51,1.82-1.09,3.77-1.99,5.86-2.6,1.61-.47,3.27-.58,4.86-1.1.44-.14.95-.05,1.43-.06h4.37-.02Z"/><path class="cls-1" d="m176.85,227.74c4.27,0,8.53.03,12.8.04,1.79,0,3.59-.04,5.38-.06-.27.1-.55.29-.82.29-5.57.02-11.14.02-16.71,0-.29,0-.58-.15-.87-.24h.12l.11-.04h0Z"/><path class="cls-1" d="m131.76,227.74c4.43,0,8.87.03,13.3.04,1.56,0,3.12-.02,4.67-.04l.11.03h.12c-.33.08-.65.24-.98.24-5.49.02-10.99.02-16.48,0-.33,0-.65-.16-.98-.25h.12s.11-.02.11-.02h0Z"/><path class="cls-1" d="m116.88,132.12h-18.25c.15-.08.3-.24.45-.24,5.79,0,11.57,0,17.36,0,.15,0,.3.16.45.24h0Z"/><path class="cls-1" d="m100.09,227.74c3.57,0,7.14.03,10.72.04h6.07c-.33.08-.66.23-1,.23-5.01,0-10.03,0-15.04,0-.33,0-.66-.16-.99-.24h.12l.11-.03h0Z"/><path class="cls-1" d="m148.55,158.49c-5.66,0-11.31,0-16.97.02.15-.08.29-.24.44-.24,5.35,0,10.71,0,16.06,0,.16,0,.31.15.47.23h0Z"/><path class="cls-1" d="m229.45,173.16c.35-.09.71-.26,1.06-.27,3.36-.02,6.71,0,10.07,0,.48,0,.96-.02,1.44-.03-.23.51-.69.26-1.04.26-3.37.02-6.74,0-10.1,0-.48,0-.95.02-1.43.04h0Z"/><path class="cls-1" d="m241.85,158.53c-3.74,0-7.48-.02-11.22-.05-.4,0-.89.22-1.19-.28,3.71.02,7.42.03,11.14.05.44,0,.87.04,1.31.06-.02.07-.03.14-.04.21h0Z"/><path class="cls-1" d="m202.58,172.85c2.48,0,4.96,0,7.43.04.35,0,.82-.24,1.05.28-2.48-.02-4.95-.03-7.43-.07-.35,0-.7-.17-1.05-.25h0Z"/><path class="cls-1" d="m211.08,158.19c-.24.5-.7.29-1.06.29-2.48.02-4.96.02-7.43.02.3-.08.61-.24.91-.24,2.09-.02,4.19,0,6.28,0,.43,0,.87-.04,1.3-.06h0Z"/><path class="cls-1" d="m80.44,156.79h-4.37c1.46-.34,2.91-.36,4.37,0Z"/><path class="cls-1" d="m173.76,156.78h-4.37c1.46-.35,2.92-.35,4.37,0Z"/><path class="cls-1" d="m163.15,170.95c1.22-.35,2.44-.39,3.66-.02-1.22,0-2.44,0-3.66.02Z"/><path class="cls-1" d="m28.81,140.76c-.06-.16-.12-.33-.18-.49.32.07.56.17.18.49Z"/><path class="cls-1" d="m234.18,214.07h-.73c.24-.28.48-.26.73,0Z"/><path class="cls-1" d="m235.64,213.89c-.25.06-.5.12-.74.18.25-.06.5-.12.74-.18Z"/><path class="cls-1" d="m99.85,217.93c-.02.17-.03.34-.05.51-.15,0-.3,0-.45-.02.08-.16.17-.33.25-.49h.25Z"/><path class="cls-1" d="m243.05,226.81c.14-.08.28-.17.42-.25-.14.08-.28.17-.42.25Z"/><path class="cls-1" d="m98.55,165.89l-.05.3c-.12-.08-.25-.15-.37-.23.14-.02.28-.04.41-.07h.01Z"/><path class="cls-1" d="m148.96,168.06c-.1.08-.2.16-.3.24,0-.09-.02-.17-.04-.26.11,0,.22,0,.33.02h0Z"/><path class="cls-1" d="m241.85,158.53c0-.07.02-.14.04-.21.05.07.09.14.13.2l-.08.03-.09-.02h0Z"/><path class="cls-1" d="m100.09,227.74l-.11.03h-.12c0-.08.02-.15.03-.23.07.07.14.14.2.2Z"/><path class="cls-1" d="m131.76,227.74l-.11.03h-.12c.01-.09.03-.16.04-.24.06.07.13.14.19.21h0Z"/><path class="cls-1" d="m149.97,227.76h-.12l-.11-.02c.06-.07.13-.14.19-.21,0,.08.03.15.04.23h0Z"/><path class="cls-1" d="m176.85,227.74l-.11.04h-.12c0-.08,0-.15.02-.23.07.07.14.13.21.2h0Z"/><path class="cls-1" d="m85.24,170.94h-3.89c1.3-.38,2.59-.38,3.89,0Z"/><path class="cls-1" d="m81.82,214.86h3.17c-1.05.37-2.11.36-3.17,0Z"/><path class="cls-1" d="m194.92,66.36c-1.55-1.55-3.04-3.16-4.65-4.64-1.42-1.31-2.93-2.52-4.45-3.71-1.48-1.16-2.99-2.27-4.54-3.34-3.79-2.61-7.86-4.67-12.19-6.29-2.91-1.09-5.9-1.82-8.9-2.54-1.21-.29-2.47-.36-3.71-.54-.65-.07-1.31-.13-1.96-.2-1.9,0-3.81,0-5.71,0-.58.06-1.16.12-1.74.18-2.94.16-5.78.84-8.61,1.59-2.77.73-5.41,1.79-8.04,2.92-4.9,2.11-9.34,4.99-13.67,8.05-1.92,1.36-3.65,2.98-5.49,4.46-3.23,2.6-6.04,5.65-9,8.54-.79.78-1.47,1.67-2.21,2.5l-.24-.24c.83-1.56,1.58-3.16,2.5-4.66,1.59-2.6,3.25-5.17,4.95-7.7,1.79-2.67,3.77-5.2,5.81-7.7,2.64-3.25,5.62-6.16,8.64-9.05,1.36-1.3,2.92-2.4,4.43-3.62-1.4-.66-2.74-1.36-4.13-1.95-2.1-.9-4.22-1.72-6.33-2.58-3.25-1.31-6.54-2.49-9.89-3.54-2.85-.89-5.69-1.76-8.6-2.42-1.89-.43-3.81-.76-5.72-1.11-1.46-.26-2.92-.5-4.38-.7-1.01-.14-2.03-.19-3.05-.29-.74-.06-1.47-.12-2.21-.18-1.35,0-2.7,0-4.05-.01-.73.06-1.47.13-2.2.19-2.89.24-5.76.64-8.58,1.36-3,.76-5.89,1.8-8.64,3.23-2.36,1.23-4.6,2.64-6.64,4.36-1.27,1.07-2.62,2.08-3.75,3.29-3.12,3.33-5.87,6.94-8.07,10.97-1.45,2.65-2.76,5.36-3.88,8.15-1.32,3.28-2.39,6.65-3.35,10.06-.85,3.01-1.37,6.07-2.09,9.1-.37,1.54-.5,3.14-.75,4.71-.22,1.38-.48,2.76-.69,4.14-.13.85-.2,1.71-.29,2.56-.23,2.15-.48,4.3-.69,6.46-.05.51,0,1.04-.03,1.56-.07,1.31-.17,2.61-.23,3.92-.03.6.03,1.2.01,1.79-.27,7.02-.28,14.05,0,21.07.1,2.59.27,5.18.38,7.78.05,1.11.03,2.23.08,3.35.07,1.54.18,3.08.27,4.62.06.16.12.33.18.49.09,1.35.14,2.71.27,4.05.11,1.13.31,2.24.44,3.37.12,1.02.19,2.04.3,3.05.14,1.32.31,2.64.44,3.97.1,1.02.13,2.04.26,3.05.17,1.39.4,2.77.61,4.16,0,.04.05.07.05.11.18,1.39.34,2.79.54,4.18.22,1.58.48,3.15.71,4.73.26,1.78.47,3.56.74,5.33.2,1.26.48,2.51.69,3.77.27,1.61.48,3.23.75,4.84.18,1.07.43,2.12.61,3.19.21,1.19.36,2.38.57,3.57.16.87.39,1.73.57,2.6.39,1.86.76,3.73,1.14,5.59.41,2.04.82,4.08,1.24,6.12.29,1.44.58,2.87.88,4.31.15.72.32,1.43.49,2.15-.1.17-.19.35-.29.52-.55-2.05-1.1-4.09-1.63-6.14-.66-2.55-1.31-5.1-1.96-7.66-.71-2.8-1.41-5.6-2.12-8.4-.42-1.68-.84-3.36-1.25-5.04-.54-2.22-1.07-4.43-1.61-6.65-.49-2.03-1-4.05-1.44-6.09-.6-2.78-1.13-5.57-1.7-8.35-.2-.96-.47-1.9-.68-2.85-.26-1.2-.5-2.41-.73-3.63-.57-2.94-1.12-5.88-1.7-8.82-.55-2.78-1.17-5.54-1.68-8.32-.38-2.1-.61-4.23-.97-6.34-.36-2.14-.82-4.26-1.19-6.39-.22-1.27-.3-2.57-.49-3.85-.21-1.42-.48-2.82-.71-4.24-.11-.69-.18-1.4-.26-2.1-.17-1.52-.31-3.04-.49-4.56-.22-1.87-.49-3.73-.7-5.6-.11-1.01-.12-2.04-.22-3.05-.14-1.29-.36-2.56-.49-3.85-.11-1.17-.13-2.36-.2-3.53-.03-.44-.07-.87-.1-1.31.39-.32.08-.4-.17-.5-.08-2.14-.16-4.28-.24-6.42,0-.28-.05-.55-.07-.83-.15.02-.29.05-.44.07v-.72c.17.2.4.33.43-.05.04-.53-.04-1.07-.07-1.6-.04-.89-.08-1.78-.12-2.67,0-.71-.01-1.43-.02-2.14-.07-.49-.15-.97-.22-1.46,0-2.47,0-4.95,0-7.43.08-.48.16-.96.24-1.44v-1.91c.04-.81.08-1.62.12-2.43.02-.46.1-.92.06-1.37-.04-.37-.26-.25-.43-.05v-.48c.15.02.3.04.45.06.03-.44.05-.88.08-1.31.15-2.21.3-4.42.45-6.62,0-.04.02-.08.03-.11.23-1.46.47-2.92.7-4.39.24-1.53.44-3.07.74-4.59.4-1.97.85-3.94,1.33-5.89.75-3.07,1.72-6.06,2.92-8.99,1.1-2.68,2.32-5.29,3.84-7.76,1.26-2.05,2.59-4.05,4.27-5.78,1.38-1.42,2.71-2.91,4.24-4.15,2.23-1.8,4.7-3.25,7.33-4.4,3.59-1.57,7.36-2.38,11.25-2.68h1.65c1.54,0,3.08.02,4.62.03,1.02.08,2.04.21,3.06.25,2.28.09,4.51.47,6.72.99,2.79.65,5.57,1.35,8.31,2.17,2.29.68,4.54,1.51,6.76,2.39,2.94,1.17,5.88,2.38,8.75,3.72,2.71,1.27,5.33,2.73,7.99,4.13,1.72.91,3.43,1.84,5.13,2.77.63.34,1.24.72,1.88,1.1.64-.75,1.21-1.41,1.78-2.06,1.61-1.85,3.17-3.75,4.86-5.52,1.57-1.64,3.25-3.17,4.94-4.69,1.58-1.43,3.14-2.89,4.86-4.13,2.97-2.15,6.02-4.18,9.33-5.81,2.16-1.07,4.38-1.98,6.67-2.67,2.34-.7,4.77-1.14,7.23-1.28h4.82c1.3.25,2.59.52,3.89.73,3.45.58,6.62,1.92,9.66,3.58,3.29,1.8,6.26,4.07,8.96,6.65,2.29,2.2,4.47,4.53,6.5,6.97,2.05,2.46,3.86,5.11,5.79,7.7.18-.08.44-.18.67-.31,2.63-1.5,5.22-3.08,7.89-4.5,3.02-1.61,6.12-3.1,9.19-4.64.44-.22.91-.41,1.37-.59,2.67-1.09,5.32-2.25,8.03-3.24,2.74-1,5.52-1.92,8.33-2.71,2.31-.65,4.65-1.17,7.03-1.54,2.52-.39,5.05-.67,7.59-.92h5.33c.46.09.91.26,1.37.25,1.39-.01,2.73.24,4.09.48,3.1.55,6.07,1.55,8.9,2.89,2.48,1.17,4.8,2.67,6.81,4.53,1.75,1.61,3.43,3.34,4.91,5.19,2.62,3.28,4.68,6.93,6.23,10.82,1.3,3.27,2.38,6.62,3.28,10.03.86,3.24,1.45,6.51,2.04,9.79.33,1.84.54,3.7.76,5.56.18,1.59.32,3.2.44,4.8.12,1.62.19,3.25.29,4.87v2.38c.07,1.05.13,2.1.2,3.15v8.39c-.06.82-.13,1.63-.19,2.45,0,1.19-.02,2.37-.03,3.56-.09,1.33-.19,2.67-.26,4-.03.63-.01,1.26.04,1.89.03.38.24.31.44.09v.48c-.15-.02-.41-.07-.42-.06-.11.5-.25.99-.29,1.5-.18,2.42-.32,4.84-.5,7.26-.12,1.6-.29,3.2-.48,4.8-.21,1.82-.48,3.64-.7,5.47-.18,1.55-.29,3.11-.5,4.66-.19,1.46-.49,2.92-.69,4.38-.19,1.35-.28,2.71-.46,4.06-.25,1.82-.52,3.64-.81,5.45-.28,1.72-.59,3.44-.89,5.15-.3,1.72-.63,3.44-.93,5.16-.26,1.46-.49,2.92-.76,4.37-.37,1.98-.79,3.96-1.16,5.95-.34,1.8-.61,3.61-.98,5.4-.5,2.42-1.07,4.82-1.6,7.23-.43,2.01-.81,4.03-1.26,6.03-.61,2.73-1.28,5.46-1.9,8.19-.49,2.14-.94,4.3-1.45,6.44-.84,3.51-1.73,7.01-2.59,10.52-.75,3.07-1.48,6.14-2.25,9.21-.62,2.47-1.29,4.93-1.94,7.4-.16.6-.32,1.19-.48,1.79-.14-.16-.28-.32-.42-.48.39-1.83.76-3.66,1.17-5.48.27-1.24.61-2.48.87-3.72.38-1.83.69-3.68,1.06-5.51.35-1.75.74-3.49,1.07-5.25.39-2.07.71-4.15,1.08-6.22.29-1.57.64-3.12.92-4.68.21-1.19.34-2.4.52-3.6.24-1.65.5-3.31.75-4.96.15-1,.29-2,.45-3,.22-1.34.48-2.68.69-4.02.13-.85.16-1.72.27-2.57.2-1.51.43-3.01.64-4.52.12-.85.22-1.71.31-2.57.1-.98.16-1.96.25-2.94.05-.5.16-1,.23-1.5.17-1.24.35-2.48.49-3.72.11-1.05.14-2.12.24-3.17.14-1.44.33-2.88.49-4.31.03-.28.04-.56.05-.84.06-1.46.08-2.92.19-4.37.14-1.85.42-3.69.51-5.54.21-4.23.36-8.46.5-12.69.21-6.51.02-13.02-.32-19.52-.11-1.98-.27-3.96-.45-5.94-.14-1.56-.3-3.13-.5-4.68-.19-1.46-.47-2.91-.69-4.37-.18-1.19-.31-2.4-.5-3.59-.21-1.26-.46-2.52-.7-3.78-.24-1.3-.45-2.62-.73-3.91-.38-1.74-.74-3.48-1.24-5.19-.61-2.11-1.32-4.2-2.03-6.29-1.27-3.77-2.83-7.42-4.73-10.91-1.38-2.54-2.9-5.01-4.76-7.24-1.19-1.42-2.29-2.94-3.6-4.24-2.84-2.84-5.98-5.29-9.53-7.23-3.5-1.91-7.22-3.16-11.05-4.12-1.85-.46-3.79-.53-5.69-.79-.42-.06-.83-.17-1.25-.25-.58-.06-1.16-.11-1.73-.17-1.74,0-3.47,0-5.21.01-.58.05-1.16.1-1.74.15-2.01.31-4.04.38-6.05.68-3.36.5-6.66,1.21-9.95,2-1.98.48-3.89,1.22-5.85,1.79-3.82,1.1-7.5,2.57-11.18,4.04-2.58,1.04-5.08,2.28-7.61,3.44-1.23.56-2.45,1.14-3.67,1.72-.17.08-.32.2-.54.34.81.64,1.6,1.21,2.34,1.84,1.57,1.32,3.12,2.66,4.68,4,.66.57,1.35,1.12,1.93,1.76,1.93,2.1,3.83,4.22,5.72,6.36,3.43,3.89,6.36,8.16,9.28,12.43.06.09.04.23.06.35-.06.06-.12.13-.17.19h-.04Zm-42.8-54.56h-4.52c-.57.06-1.15.12-1.72.19-1.16.17-2.31.4-3.47.48-2.3.17-4.49.84-6.67,1.51-1.95.6-3.82,1.47-5.71,2.23-2.85,1.15-5.51,2.67-8.11,4.3-2.73,1.7-5.35,3.56-7.9,5.52-.7.54-1.33,1.17-1.99,1.76,5.54,3.74,10.96,7.4,16.24,10.96,2.22-1.18,4.34-2.35,6.51-3.43,3.87-1.94,7.98-3.01,12.32-3.19h4.11c6.66.34,12.59,2.78,18.15,6.2,5.43-3.71,10.88-7.42,16.35-11.16-.41-.38-.82-.82-1.28-1.19-1.43-1.16-2.82-2.38-4.34-3.42-2.27-1.57-4.57-3.12-6.97-4.46-2.06-1.15-4.26-2.06-6.44-2.96-2.69-1.1-5.46-1.96-8.34-2.42-1.5-.24-2.99-.49-4.49-.73-.57-.06-1.15-.12-1.72-.19h0Z"/><path class="cls-1" d="m195.56,66.67c-.09.09-.17.17-.26.26-.13-.19-.26-.37-.38-.56.06-.06.12-.13.17-.19.16.16.31.33.47.49Z"/><path d="m18.97,282.75H0v-44.04h18.97c2.73.04,5,.36,6.81.96,3.09,1.02,5.59,2.88,7.5,5.59,1.53,2.19,2.58,4.56,3.14,7.11.56,2.55.84,4.98.84,7.29,0,5.86-1.18,10.82-3.53,14.88-3.19,5.48-8.11,8.22-14.76,8.22Zm6.84-32.81c-1.41-2.39-4.21-3.58-8.4-3.58h-8.49v28.74h8.49c4.34,0,7.37-2.14,9.08-6.42.94-2.35,1.4-5.15,1.4-8.4,0-4.48-.7-7.93-2.09-10.34Z"/><path d="m71.24,273.19c-.22,1.93-1.23,3.89-3.02,5.89-2.79,3.17-6.69,4.75-11.71,4.75-4.14,0-7.8-1.33-10.97-4s-4.75-7.01-4.75-13.03c0-5.64,1.43-9.96,4.29-12.97,2.86-3.01,6.57-4.51,11.13-4.51,2.71,0,5.15.51,7.32,1.52,2.17,1.02,3.96,2.62,5.38,4.81,1.27,1.93,2.1,4.17,2.48,6.72.22,1.49.31,3.65.27,6.45h-22.29c.12,3.27,1.15,5.56,3.08,6.87,1.17.82,2.59,1.22,4.24,1.22,1.75,0,3.18-.5,4.27-1.49.6-.54,1.12-1.28,1.58-2.24h8.69Zm-8.43-9.98c-.14-2.25-.82-3.96-2.05-5.12s-2.74-1.75-4.56-1.75c-1.97,0-3.5.62-4.59,1.85-1.09,1.24-1.77,2.91-2.05,5.02h13.24Z"/><path d="m91.97,256.49c-2.89,0-4.87,1.23-5.95,3.67-.56,1.29-.84,2.95-.84,4.96v17.63h-8.48v-32.51h8.22v4.75c1.1-1.67,2.13-2.88,3.11-3.62,1.75-1.31,3.97-1.97,6.66-1.97,3.37,0,6.12.88,8.26,2.64,2.14,1.76,3.21,4.69,3.21,8.77v21.93h-8.72v-19.81c0-1.71-.23-3.03-.69-3.94-.84-1.67-2.43-2.51-4.78-2.51Z"/><path d="m127.72,276.69v6.36l-4.03.15c-4.02.14-6.77-.56-8.25-2.09-.96-.98-1.43-2.48-1.43-4.51v-20.05h-4.54v-6.06h4.54v-9.08h8.43v9.08h5.29v6.06h-5.29v17.21c0,1.33.17,2.17.51,2.5.34.33,1.37.49,3.11.49.26,0,.53,0,.82-.01.29,0,.57-.02.85-.04Z"/><path d="m133.92,253.71c2.25-2.87,6.11-4.3,11.59-4.3,3.56,0,6.73.71,9.5,2.12,2.77,1.42,4.15,4.08,4.15,8.01v14.94c0,1.04.02,2.29.06,3.76.06,1.12.23,1.87.51,2.27.28.4.7.73,1.26.99v1.25h-9.26c-.26-.66-.44-1.27-.54-1.85-.1-.58-.18-1.23-.24-1.97-1.18,1.27-2.53,2.36-4.06,3.26-1.83,1.06-3.9,1.58-6.21,1.58-2.95,0-5.38-.84-7.31-2.52-1.92-1.68-2.88-4.07-2.88-7.16,0-4,1.54-6.9,4.63-8.7,1.69-.98,4.18-1.67,7.47-2.09l2.9-.36c1.57-.2,2.7-.45,3.38-.75,1.21-.52,1.82-1.32,1.82-2.42,0-1.33-.46-2.26-1.39-2.76-.93-.51-2.29-.76-4.08-.76-2.01,0-3.44.5-4.27,1.49-.6.74-1,1.73-1.2,2.99h-8.22c.18-2.85.98-5.19,2.39-7.02Zm6.33,22.89c.8.66,1.77.99,2.93.99,1.83,0,3.52-.54,5.06-1.61s2.35-3.04,2.41-5.89v-3.17c-.54.34-1.08.61-1.63.82s-1.3.4-2.26.58l-1.91.36c-1.79.32-3.08.71-3.85,1.17-1.31.78-1.97,1.98-1.97,3.62,0,1.45.41,2.5,1.23,3.14Z"/><path d="m165.97,238.71h8.51v44.04h-8.51v-44.04Z"/><path d="m200.47,238.71h9.2v36.12h21.81v7.92h-31.01v-44.04Z"/><path d="m238.2,253.71c2.25-2.87,6.12-4.3,11.59-4.3,3.57,0,6.73.71,9.5,2.12,2.77,1.42,4.15,4.08,4.15,8.01v14.94c0,1.04.02,2.29.06,3.76.06,1.12.23,1.87.51,2.27.28.4.7.73,1.25.99v1.25h-9.26c-.26-.66-.44-1.27-.54-1.85-.1-.58-.18-1.23-.24-1.97-1.18,1.27-2.53,2.36-4.06,3.26-1.83,1.06-3.9,1.58-6.21,1.58-2.95,0-5.38-.84-7.31-2.52-1.92-1.68-2.88-4.07-2.88-7.16,0-4,1.54-6.9,4.63-8.7,1.69-.98,4.18-1.67,7.47-2.09l2.9-.36c1.57-.2,2.7-.45,3.38-.75,1.21-.52,1.82-1.32,1.82-2.42,0-1.33-.46-2.26-1.39-2.76-.93-.51-2.29-.76-4.08-.76-2.01,0-3.44.5-4.27,1.49-.6.74-1,1.73-1.2,2.99h-8.22c.18-2.85.98-5.19,2.39-7.02Zm6.33,22.89c.8.66,1.77.99,2.93.99,1.83,0,3.52-.54,5.06-1.61,1.54-1.08,2.34-3.04,2.41-5.89v-3.17c-.54.34-1.08.61-1.63.82s-1.3.4-2.26.58l-1.91.36c-1.79.32-3.08.71-3.85,1.17-1.31.78-1.97,1.98-1.97,3.62,0,1.45.41,2.5,1.23,3.14Z"/><path d="m287.9,283.62c-2.69,0-4.85-.54-6.48-1.61-.98-.64-2.03-1.75-3.17-3.35v4.09h-8.34v-43.98h8.49v15.66c1.08-1.51,2.26-2.67,3.56-3.47,1.53-1,3.49-1.49,5.86-1.49,4.28,0,7.63,1.54,10.05,4.63,2.42,3.09,3.63,7.07,3.63,11.95s-1.2,9.25-3.59,12.58c-2.39,3.33-5.73,4.99-10.01,4.99Zm4.66-16.67c0-2.31-.3-4.22-.9-5.74-1.13-2.87-3.23-4.3-6.27-4.3s-5.21,1.4-6.36,4.21c-.6,1.49-.9,3.43-.9,5.8,0,2.79.62,5.1,1.85,6.93,1.23,1.83,3.12,2.75,5.65,2.75,2.19,0,3.89-.89,5.11-2.66,1.21-1.77,1.82-4.1,1.82-6.99Z"/></g></svg>